<svg xmlns="http://www.w3.org/2000/svg" xmlns:xlink="http://www.w3.org/1999/xlink" width="1920" zoomAndPan="magnify" viewBox="0 0 1440 959.999988" height="1280" preserveAspectRatio="xMidYMid meet" version="1.0"><defs><g/><clipPath id="c25f57a6d9"><rect x="0" width="818" y="0" height="402"/></clipPath><clipPath id="40f9929aa7"><path d="M 123 263 L 280 263 L 280 420 L 123 420 Z M 123 263 " clip-rule="nonzero"/></clipPath><clipPath id="07e2517d05"><path d="M 115.4375 341.335938 L 201.761719 255.011719 L 288.085938 341.335938 L 201.761719 427.660156 Z M 115.4375 341.335938 " clip-rule="nonzero"/></clipPath><clipPath id="3b61ef576f"><path d="M 216.078125 269.328125 L 273.765625 327.015625 C 277.5625 330.8125 279.699219 335.964844 279.699219 341.335938 C 279.699219 346.707031 277.5625 351.855469 273.765625 355.652344 L 216.078125 413.339844 C 212.28125 417.136719 207.132812 419.273438 201.761719 419.273438 C 196.390625 419.273438 191.238281 417.136719 187.441406 413.339844 L 129.753906 355.652344 C 125.957031 351.855469 123.824219 346.707031 123.824219 341.335938 C 123.824219 335.964844 125.957031 330.8125 129.753906 327.015625 L 187.441406 269.328125 C 191.238281 265.53125 196.390625 263.398438 201.761719 263.398438 C 207.132812 263.398438 212.28125 265.53125 216.078125 269.328125 Z M 216.078125 269.328125 " clip-rule="nonzero"/></clipPath><clipPath id="d957911980"><path d="M 0.601562 0.28125 L 156.839844 0.28125 L 156.839844 156.28125 L 0.601562 156.28125 Z M 0.601562 0.28125 " clip-rule="nonzero"/></clipPath><clipPath id="4f09d9896d"><path d="M -7.5625 78.335938 L 78.761719 -7.988281 L 165.085938 78.335938 L 78.761719 164.660156 Z M -7.5625 78.335938 " clip-rule="nonzero"/></clipPath><clipPath id="aa17173af0"><path d="M 93.078125 6.328125 L 150.765625 64.015625 C 154.5625 67.8125 156.699219 72.964844 156.699219 78.335938 C 156.699219 83.707031 154.5625 88.855469 150.765625 92.652344 L 93.078125 150.339844 C 89.28125 154.136719 84.132812 156.273438 78.761719 156.273438 C 73.390625 156.273438 68.238281 154.136719 64.441406 150.339844 L 6.753906 92.652344 C 2.957031 88.855469 0.824219 83.707031 0.824219 78.335938 C 0.824219 72.964844 2.957031 67.8125 6.753906 64.015625 L 64.441406 6.328125 C 68.238281 2.53125 73.390625 0.398438 78.761719 0.398438 C 84.132812 0.398438 89.28125 2.53125 93.078125 6.328125 Z M 93.078125 6.328125 " clip-rule="nonzero"/></clipPath><clipPath id="717380457b"><rect x="0" width="157" y="0" height="157"/></clipPath><clipPath id="0017c0de0f"><path d="M 309.984375 269.804688 L 453.046875 269.804688 L 453.046875 412.871094 L 309.984375 412.871094 Z M 309.984375 269.804688 " clip-rule="nonzero"/></clipPath><clipPath id="869d841789"><path d="M 381.515625 269.804688 C 342.007812 269.804688 309.984375 301.832031 309.984375 341.339844 C 309.984375 380.84375 342.007812 412.871094 381.515625 412.871094 C 421.023438 412.871094 453.046875 380.84375 453.046875 341.339844 C 453.046875 301.832031 421.023438 269.804688 381.515625 269.804688 Z M 381.515625 269.804688 " clip-rule="nonzero"/></clipPath><clipPath id="357fc7ad6c"><path d="M 0.984375 0.804688 L 144.046875 0.804688 L 144.046875 143.871094 L 0.984375 143.871094 Z M 0.984375 0.804688 " clip-rule="nonzero"/></clipPath><clipPath id="b26cb789de"><path d="M 72.515625 0.804688 C 33.007812 0.804688 0.984375 32.832031 0.984375 72.339844 C 0.984375 111.84375 33.007812 143.871094 72.515625 143.871094 C 112.023438 143.871094 144.046875 111.84375 144.046875 72.339844 C 144.046875 32.832031 112.023438 0.804688 72.515625 0.804688 Z M 72.515625 0.804688 " clip-rule="nonzero"/></clipPath><clipPath id="263ec52063"><rect x="0" width="145" y="0" height="144"/></clipPath><clipPath id="116a35544d"><path d="M 121.367188 434 L 281.53125 434 L 281.53125 593.765625 L 121.367188 593.765625 Z M 121.367188 434 " clip-rule="nonzero"/></clipPath><clipPath id="7a34fc64ac"><path d="M 281.53125 437.976562 L 281.53125 590.015625 C 281.53125 591.011719 281.136719 591.964844 280.433594 592.667969 C 279.730469 593.371094 278.773438 593.765625 277.78125 593.765625 L 125.738281 593.765625 C 124.742188 593.765625 123.789062 593.371094 123.085938 592.667969 C 122.382812 591.964844 121.988281 591.011719 121.988281 590.015625 L 121.988281 437.976562 C 121.988281 436.980469 122.382812 436.027344 123.085938 435.324219 C 123.789062 434.621094 124.742188 434.226562 125.738281 434.226562 L 277.78125 434.226562 C 278.773438 434.226562 279.730469 434.621094 280.433594 435.324219 C 281.136719 436.027344 281.53125 436.980469 281.53125 437.976562 Z M 281.53125 437.976562 " clip-rule="nonzero"/></clipPath><clipPath id="e5ae11c283"><path d="M 0.921875 0.160156 L 160.53125 0.160156 L 160.53125 159.765625 L 0.921875 159.765625 Z M 0.921875 0.160156 " clip-rule="nonzero"/></clipPath><clipPath id="d2e4207dab"><path d="M 160.53125 3.976562 L 160.53125 156.015625 C 160.53125 157.011719 160.136719 157.964844 159.433594 158.667969 C 158.730469 159.371094 157.773438 159.765625 156.78125 159.765625 L 4.738281 159.765625 C 3.742188 159.765625 2.789062 159.371094 2.085938 158.667969 C 1.382812 157.964844 0.988281 157.011719 0.988281 156.015625 L 0.988281 3.976562 C 0.988281 2.980469 1.382812 2.027344 2.085938 1.324219 C 2.789062 0.621094 3.742188 0.226562 4.738281 0.226562 L 156.78125 0.226562 C 157.773438 0.226562 158.730469 0.621094 159.433594 1.324219 C 160.136719 2.027344 160.53125 2.980469 160.53125 3.976562 Z M 160.53125 3.976562 " clip-rule="nonzero"/></clipPath><clipPath id="444f04bdba"><rect x="0" width="161" y="0" height="160"/></clipPath><clipPath id="5795669dac"><path d="M 301.746094 434.226562 L 461.285156 434.226562 L 461.285156 593.765625 L 301.746094 593.765625 Z M 301.746094 434.226562 " clip-rule="nonzero"/></clipPath><clipPath id="02e2e459c5"><path d="M 0.746094 0.226562 L 160.285156 0.226562 L 160.285156 159.765625 L 0.746094 159.765625 Z M 0.746094 0.226562 " clip-rule="nonzero"/></clipPath><clipPath id="33c1b03c41"><rect x="0" width="161" y="0" height="160"/></clipPath><clipPath id="432336c570"><rect x="0" width="1168" y="0" height="90"/></clipPath></defs><g transform="matrix(1, 0, 0, 1, 508, 259)"><g clip-path="url(#c25f57a6d9)"><g fill="#000000" fill-opacity="1"><g transform="translate(0.823419, 181.255616)"><g><path d="M 68.34375 1.21875 C 56.894531 1.21875 46.398438 -1.441406 36.859375 -6.765625 C 27.316406 -12.085938 19.738281 -19.519531 14.125 -29.0625 C 8.519531 -38.601562 5.71875 -49.328125 5.71875 -61.234375 C 5.71875 -73.148438 8.519531 -83.847656 14.125 -93.328125 C 19.738281 -102.804688 27.316406 -110.207031 36.859375 -115.53125 C 46.398438 -120.851562 56.894531 -123.515625 68.34375 -123.515625 C 79.789062 -123.515625 90.285156 -120.851562 99.828125 -115.53125 C 109.367188 -110.207031 116.882812 -102.804688 122.375 -93.328125 C 127.875 -83.847656 130.625 -73.148438 130.625 -61.234375 C 130.625 -49.328125 127.847656 -38.601562 122.296875 -29.0625 C 116.742188 -19.519531 109.222656 -12.085938 99.734375 -6.765625 C 90.253906 -1.441406 79.789062 1.21875 68.34375 1.21875 Z M 68.34375 -25.84375 C 78.0625 -25.84375 85.835938 -29.082031 91.671875 -35.5625 C 97.515625 -42.039062 100.4375 -50.597656 100.4375 -61.234375 C 100.4375 -71.984375 97.515625 -80.566406 91.671875 -86.984375 C 85.835938 -93.410156 78.0625 -96.625 68.34375 -96.625 C 58.519531 -96.625 50.6875 -93.441406 44.84375 -87.078125 C 39 -80.722656 36.078125 -72.109375 36.078125 -61.234375 C 36.078125 -50.484375 39 -41.894531 44.84375 -35.46875 C 50.6875 -29.050781 58.519531 -25.84375 68.34375 -25.84375 Z M 68.34375 -25.84375 "/></g></g></g><g fill="#000000" fill-opacity="1"><g transform="translate(137.16769, 181.255616)"><g><path d="M 40.421875 -83.09375 C 43.191406 -87.601562 47.175781 -91.242188 52.375 -94.015625 C 57.582031 -96.796875 63.539062 -98.1875 70.25 -98.1875 C 78.226562 -98.1875 85.457031 -96.160156 91.9375 -92.109375 C 98.414062 -88.066406 103.53125 -82.285156 107.28125 -74.765625 C 111.039062 -67.242188 112.921875 -58.515625 112.921875 -48.578125 C 112.921875 -38.628906 111.039062 -29.863281 107.28125 -22.28125 C 103.53125 -14.707031 98.414062 -8.867188 91.9375 -4.765625 C 85.457031 -0.660156 78.226562 1.390625 70.25 1.390625 C 63.425781 1.390625 57.46875 0.0273438 52.375 -2.6875 C 47.289062 -5.40625 43.304688 -9.019531 40.421875 -13.53125 L 40.421875 0 L 10.75 0 L 10.75 -128.359375 L 40.421875 -128.359375 Z M 82.75 -48.578125 C 82.75 -55.972656 80.691406 -61.78125 76.578125 -66 C 72.472656 -70.226562 67.414062 -72.34375 61.40625 -72.34375 C 55.507812 -72.34375 50.507812 -70.203125 46.40625 -65.921875 C 42.300781 -61.640625 40.25 -55.796875 40.25 -48.390625 C 40.25 -40.992188 42.300781 -35.15625 46.40625 -30.875 C 50.507812 -26.59375 55.507812 -24.453125 61.40625 -24.453125 C 67.300781 -24.453125 72.332031 -26.617188 76.5 -30.953125 C 80.664062 -35.296875 82.75 -41.171875 82.75 -48.578125 Z M 82.75 -48.578125 "/></g></g></g><g fill="#000000" fill-opacity="1"><g transform="translate(254.951101, 181.255616)"><g><path d="M 85.34375 0 L 60.546875 -37.296875 L 38.6875 0 L 5.03125 0 L 44.0625 -61.921875 L 4.15625 -121.78125 L 38.6875 -121.78125 L 63.140625 -85 L 84.65625 -121.78125 L 118.3125 -121.78125 L 79.625 -60.359375 L 119.859375 0 Z M 85.34375 0 "/></g></g></g><g fill="#000000" fill-opacity="1"><g transform="translate(378.992391, 181.255616)"><g/></g></g><g fill="#000000" fill-opacity="1"><g transform="translate(0.823419, 340.561971)"><g><path d="M 116.21875 -121.78125 L 116.21875 0 L 86.5625 0 L 86.5625 -50.125 L 40.421875 -50.125 L 40.421875 0 L 10.75 0 L 10.75 -121.78125 L 40.421875 -121.78125 L 40.421875 -74.078125 L 86.5625 -74.078125 L 86.5625 -121.78125 Z M 116.21875 -121.78125 "/></g></g></g><g fill="#000000" fill-opacity="1"><g transform="translate(127.627053, 340.561971)"><g><path d="M 25.671875 -106.859375 C 20.472656 -106.859375 16.222656 -108.390625 12.921875 -111.453125 C 9.628906 -114.515625 7.984375 -118.300781 7.984375 -122.8125 C 7.984375 -127.4375 9.628906 -131.28125 12.921875 -134.34375 C 16.222656 -137.414062 20.472656 -138.953125 25.671875 -138.953125 C 30.765625 -138.953125 34.957031 -137.414062 38.25 -134.34375 C 41.539062 -131.28125 43.1875 -127.4375 43.1875 -122.8125 C 43.1875 -118.300781 41.539062 -114.515625 38.25 -111.453125 C 34.957031 -108.390625 30.765625 -106.859375 25.671875 -106.859375 Z M 40.421875 -96.796875 L 40.421875 0 L 10.75 0 L 10.75 -96.796875 Z M 40.421875 -96.796875 "/></g></g></g><g fill="#000000" fill-opacity="1"><g transform="translate(178.799524, 340.561971)"><g><path d="M 50.125 1.390625 C 41.6875 1.390625 34.171875 -0.0507812 27.578125 -2.9375 C 20.984375 -5.832031 15.78125 -9.796875 11.96875 -14.828125 C 8.15625 -19.859375 6.015625 -25.5 5.546875 -31.75 L 34.875 -31.75 C 35.21875 -28.394531 36.773438 -25.675781 39.546875 -23.59375 C 42.328125 -21.507812 45.738281 -20.46875 49.78125 -20.46875 C 53.488281 -20.46875 56.351562 -21.191406 58.375 -22.640625 C 60.394531 -24.085938 61.40625 -25.96875 61.40625 -28.28125 C 61.40625 -31.050781 59.957031 -33.097656 57.0625 -34.421875 C 54.175781 -35.753906 49.492188 -37.234375 43.015625 -38.859375 C 36.078125 -40.472656 30.296875 -42.175781 25.671875 -43.96875 C 21.046875 -45.757812 17.054688 -48.59375 13.703125 -52.46875 C 10.347656 -56.34375 8.671875 -61.578125 8.671875 -68.171875 C 8.671875 -73.722656 10.203125 -78.78125 13.265625 -83.34375 C 16.335938 -87.914062 20.847656 -91.53125 26.796875 -94.1875 C 32.753906 -96.851562 39.835938 -98.1875 48.046875 -98.1875 C 60.191406 -98.1875 69.757812 -95.175781 76.75 -89.15625 C 83.75 -83.144531 87.769531 -75.164062 88.8125 -65.21875 L 61.40625 -65.21875 C 60.945312 -68.570312 59.472656 -71.234375 56.984375 -73.203125 C 54.492188 -75.171875 51.226562 -76.15625 47.1875 -76.15625 C 43.71875 -76.15625 41.054688 -75.488281 39.203125 -74.15625 C 37.347656 -72.820312 36.421875 -71 36.421875 -68.6875 C 36.421875 -65.914062 37.894531 -63.832031 40.84375 -62.4375 C 43.800781 -61.050781 48.398438 -59.664062 54.640625 -58.28125 C 61.804688 -56.4375 67.644531 -54.613281 72.15625 -52.8125 C 76.664062 -51.019531 80.625 -48.128906 84.03125 -44.140625 C 87.445312 -40.148438 89.21875 -34.804688 89.34375 -28.109375 C 89.34375 -22.441406 87.75 -17.378906 84.5625 -12.921875 C 81.382812 -8.472656 76.816406 -4.972656 70.859375 -2.421875 C 64.898438 0.117188 57.988281 1.390625 50.125 1.390625 Z M 50.125 1.390625 "/></g></g></g><g fill="#000000" fill-opacity="1"><g transform="translate(275.593544, 340.561971)"><g><path d="M 64.703125 -25.15625 L 64.703125 0 L 49.609375 0 C 38.859375 0 30.472656 -2.628906 24.453125 -7.890625 C 18.441406 -13.148438 15.4375 -21.738281 15.4375 -33.65625 L 15.4375 -72.15625 L 3.640625 -72.15625 L 3.640625 -96.796875 L 15.4375 -96.796875 L 15.4375 -120.390625 L 45.109375 -120.390625 L 45.109375 -96.796875 L 64.53125 -96.796875 L 64.53125 -72.15625 L 45.109375 -72.15625 L 45.109375 -33.3125 C 45.109375 -30.414062 45.800781 -28.332031 47.1875 -27.0625 C 48.570312 -25.789062 50.882812 -25.15625 54.125 -25.15625 Z M 64.703125 -25.15625 "/></g></g></g><g fill="#000000" fill-opacity="1"><g transform="translate(346.020716, 340.561971)"><g><path d="M 54.8125 1.390625 C 45.332031 1.390625 36.804688 -0.628906 29.234375 -4.671875 C 21.660156 -8.722656 15.703125 -14.507812 11.359375 -22.03125 C 7.023438 -29.550781 4.859375 -38.335938 4.859375 -48.390625 C 4.859375 -58.335938 7.054688 -67.097656 11.453125 -74.671875 C 15.847656 -82.253906 21.859375 -88.066406 29.484375 -92.109375 C 37.117188 -96.160156 45.675781 -98.1875 55.15625 -98.1875 C 64.644531 -98.1875 73.203125 -96.160156 80.828125 -92.109375 C 88.460938 -88.066406 94.476562 -82.253906 98.875 -74.671875 C 103.269531 -67.097656 105.46875 -58.335938 105.46875 -48.390625 C 105.46875 -38.453125 103.238281 -29.691406 98.78125 -22.109375 C 94.332031 -14.535156 88.265625 -8.722656 80.578125 -4.671875 C 72.890625 -0.628906 64.300781 1.390625 54.8125 1.390625 Z M 54.8125 -24.28125 C 60.476562 -24.28125 65.304688 -26.363281 69.296875 -30.53125 C 73.285156 -34.695312 75.28125 -40.648438 75.28125 -48.390625 C 75.28125 -56.140625 73.34375 -62.097656 69.46875 -66.265625 C 65.59375 -70.429688 60.820312 -72.515625 55.15625 -72.515625 C 49.375 -72.515625 44.578125 -70.457031 40.765625 -66.34375 C 36.953125 -62.238281 35.046875 -56.253906 35.046875 -48.390625 C 35.046875 -40.648438 36.921875 -34.695312 40.671875 -30.53125 C 44.429688 -26.363281 49.144531 -24.28125 54.8125 -24.28125 Z M 54.8125 -24.28125 "/></g></g></g><g fill="#000000" fill-opacity="1"><g transform="translate(456.518555, 340.561971)"><g><path d="M 40.421875 -80.65625 C 43.890625 -85.976562 48.222656 -90.171875 53.421875 -93.234375 C 58.628906 -96.304688 64.414062 -97.84375 70.78125 -97.84375 L 70.78125 -66.4375 L 62.625 -66.4375 C 55.21875 -66.4375 49.664062 -64.84375 45.96875 -61.65625 C 42.269531 -58.476562 40.421875 -52.898438 40.421875 -44.921875 L 40.421875 0 L 10.75 0 L 10.75 -96.796875 L 40.421875 -96.796875 Z M 40.421875 -80.65625 "/></g></g></g><g fill="#000000" fill-opacity="1"><g transform="translate(530.761998, 340.561971)"><g><path d="M 25.671875 -106.859375 C 20.472656 -106.859375 16.222656 -108.390625 12.921875 -111.453125 C 9.628906 -114.515625 7.984375 -118.300781 7.984375 -122.8125 C 7.984375 -127.4375 9.628906 -131.28125 12.921875 -134.34375 C 16.222656 -137.414062 20.472656 -138.953125 25.671875 -138.953125 C 30.765625 -138.953125 34.957031 -137.414062 38.25 -134.34375 C 41.539062 -131.28125 43.1875 -127.4375 43.1875 -122.8125 C 43.1875 -118.300781 41.539062 -114.515625 38.25 -111.453125 C 34.957031 -108.390625 30.765625 -106.859375 25.671875 -106.859375 Z M 40.421875 -96.796875 L 40.421875 0 L 10.75 0 L 10.75 -96.796875 Z M 40.421875 -96.796875 "/></g></g></g><g fill="#000000" fill-opacity="1"><g transform="translate(581.934469, 340.561971)"><g><path d="M 4.859375 -48.578125 C 4.859375 -58.515625 6.734375 -67.242188 10.484375 -74.765625 C 14.242188 -82.285156 19.363281 -88.066406 25.84375 -92.109375 C 32.320312 -96.160156 39.550781 -98.1875 47.53125 -98.1875 C 54.351562 -98.1875 60.335938 -96.796875 65.484375 -94.015625 C 70.628906 -91.242188 74.585938 -87.601562 77.359375 -83.09375 L 77.359375 -96.796875 L 107.03125 -96.796875 L 107.03125 0 L 77.359375 0 L 77.359375 -13.703125 C 74.472656 -9.191406 70.457031 -5.546875 65.3125 -2.765625 C 60.164062 0.00390625 54.179688 1.390625 47.359375 1.390625 C 39.492188 1.390625 32.320312 -0.660156 25.84375 -4.765625 C 19.363281 -8.867188 14.242188 -14.707031 10.484375 -22.28125 C 6.734375 -29.863281 4.859375 -38.628906 4.859375 -48.578125 Z M 77.359375 -48.390625 C 77.359375 -55.796875 75.304688 -61.640625 71.203125 -65.921875 C 67.097656 -70.203125 62.097656 -72.34375 56.203125 -72.34375 C 50.304688 -72.34375 45.304688 -70.226562 41.203125 -66 C 37.097656 -61.78125 35.046875 -55.972656 35.046875 -48.578125 C 35.046875 -41.171875 37.097656 -35.296875 41.203125 -30.953125 C 45.304688 -26.617188 50.304688 -24.453125 56.203125 -24.453125 C 62.097656 -24.453125 67.097656 -26.59375 71.203125 -30.875 C 75.304688 -35.15625 77.359375 -40.992188 77.359375 -48.390625 Z M 77.359375 -48.390625 "/></g></g></g><g fill="#000000" fill-opacity="1"><g transform="translate(699.71792, 340.561971)"><g><path d="M 69.734375 -97.84375 C 81.066406 -97.84375 90.113281 -94.171875 96.875 -86.828125 C 103.644531 -79.484375 107.03125 -69.390625 107.03125 -56.546875 L 107.03125 0 L 77.546875 0 L 77.546875 -52.5625 C 77.546875 -59.039062 75.867188 -64.070312 72.515625 -67.65625 C 69.160156 -71.238281 64.648438 -73.03125 58.984375 -73.03125 C 53.316406 -73.03125 48.804688 -71.238281 45.453125 -67.65625 C 42.097656 -64.070312 40.421875 -59.039062 40.421875 -52.5625 L 40.421875 0 L 10.75 0 L 10.75 -96.796875 L 40.421875 -96.796875 L 40.421875 -83.953125 C 43.421875 -88.234375 47.460938 -91.617188 52.546875 -94.109375 C 57.640625 -96.597656 63.367188 -97.84375 69.734375 -97.84375 Z M 69.734375 -97.84375 "/></g></g></g></g></g><g clip-path="url(#40f9929aa7)"><g clip-path="url(#07e2517d05)"><g clip-path="url(#3b61ef576f)"><g transform="matrix(1, 0, 0, 1, 123, 263)"><g clip-path="url(#717380457b)"><g clip-path="url(#d957911980)"><g clip-path="url(#4f09d9896d)"><g clip-path="url(#aa17173af0)"><path fill="#000000" d="M -7.5625 78.335938 L 78.761719 -7.988281 L 165.085938 78.335938 L 78.761719 164.660156 Z M -7.5625 78.335938 " fill-opacity="1" fill-rule="nonzero"/></g></g></g></g></g></g></g></g><g clip-path="url(#0017c0de0f)"><g clip-path="url(#869d841789)"><g transform="matrix(1, 0, 0, 1, 309, 269)"><g clip-path="url(#263ec52063)"><g clip-path="url(#357fc7ad6c)"><g clip-path="url(#b26cb789de)"><path fill="#000000" d="M 0.984375 0.804688 L 144.046875 0.804688 L 144.046875 143.871094 L 0.984375 143.871094 Z M 0.984375 0.804688 " fill-opacity="1" fill-rule="nonzero"/></g></g></g></g></g></g><g clip-path="url(#116a35544d)"><g clip-path="url(#7a34fc64ac)"><g transform="matrix(1, 0, 0, 1, 121, 434)"><g clip-path="url(#444f04bdba)"><g clip-path="url(#e5ae11c283)"><g clip-path="url(#d2e4207dab)"><path fill="#000000" d="M 0.988281 0.226562 L 160.53125 0.226562 L 160.53125 159.765625 L 0.988281 159.765625 Z M 0.988281 0.226562 " fill-opacity="1" fill-rule="nonzero"/></g></g></g></g></g></g><g clip-path="url(#5795669dac)"><g transform="matrix(1, 0, 0, 1, 301, 434)"><g clip-path="url(#33c1b03c41)"><g clip-path="url(#02e2e459c5)"><path fill="#000000" d="M 0.746094 0.226562 L 160.285156 0.226562 L 160.285156 159.765625 L 0.746094 159.765625 Z M 0.746094 0.226562 " fill-opacity="1" fill-rule="nonzero"/></g></g></g></g><g transform="matrix(1, 0, 0, 1, 121, 622)"><g clip-path="url(#432336c570)"><g fill="#000000" fill-opacity="1"><g transform="translate(0.988608, 65.906751)"><g><path d="M 36.0625 -44.640625 L 36.0625 -35.9375 L 24.234375 -35.9375 L 24.234375 0 L 13.359375 0 L 13.359375 -35.9375 L 1.53125 -35.9375 L 1.53125 -44.640625 Z M 36.0625 -44.640625 "/></g></g></g><g fill="#000000" fill-opacity="1"><g transform="translate(38.573696, 65.906751)"><g><path d="M 14.8125 -29.578125 C 16.082031 -31.523438 17.671875 -33.054688 19.578125 -34.171875 C 21.492188 -35.296875 23.617188 -35.859375 25.953125 -35.859375 L 25.953125 -24.359375 L 22.953125 -24.359375 C 20.242188 -24.359375 18.207031 -23.773438 16.84375 -22.609375 C 15.488281 -21.441406 14.8125 -19.394531 14.8125 -16.46875 L 14.8125 0 L 3.9375 0 L 3.9375 -35.484375 L 14.8125 -35.484375 Z M 14.8125 -29.578125 "/></g></g></g><g fill="#000000" fill-opacity="1"><g transform="translate(65.792677, 65.906751)"><g><path d="M 1.78125 -17.8125 C 1.78125 -21.457031 2.46875 -24.65625 3.84375 -27.40625 C 5.226562 -30.164062 7.101562 -32.285156 9.46875 -33.765625 C 11.84375 -35.253906 14.492188 -36 17.421875 -36 C 19.921875 -36 22.113281 -35.488281 24 -34.46875 C 25.894531 -33.445312 27.347656 -32.113281 28.359375 -30.46875 L 28.359375 -35.484375 L 39.234375 -35.484375 L 39.234375 0 L 28.359375 0 L 28.359375 -5.03125 C 27.296875 -3.375 25.820312 -2.035156 23.9375 -1.015625 C 22.050781 0.00390625 19.859375 0.515625 17.359375 0.515625 C 14.472656 0.515625 11.84375 -0.234375 9.46875 -1.734375 C 7.101562 -3.242188 5.226562 -5.390625 3.84375 -8.171875 C 2.46875 -10.953125 1.78125 -14.164062 1.78125 -17.8125 Z M 28.359375 -17.75 C 28.359375 -20.457031 27.601562 -22.59375 26.09375 -24.15625 C 24.59375 -25.726562 22.765625 -26.515625 20.609375 -26.515625 C 18.441406 -26.515625 16.601562 -25.738281 15.09375 -24.1875 C 13.59375 -22.644531 12.84375 -20.519531 12.84375 -17.8125 C 12.84375 -15.09375 13.59375 -12.9375 15.09375 -11.34375 C 16.601562 -9.757812 18.441406 -8.96875 20.609375 -8.96875 C 22.765625 -8.96875 24.59375 -9.75 26.09375 -11.3125 C 27.601562 -12.882812 28.359375 -15.03125 28.359375 -17.75 Z M 28.359375 -17.75 "/></g></g></g><g fill="#000000" fill-opacity="1"><g transform="translate(108.974196, 65.906751)"><g><path d="M 25.5625 -35.859375 C 29.71875 -35.859375 33.035156 -34.515625 35.515625 -31.828125 C 37.992188 -29.140625 39.234375 -25.441406 39.234375 -20.734375 L 39.234375 0 L 28.421875 0 L 28.421875 -19.265625 C 28.421875 -21.640625 27.804688 -23.484375 26.578125 -24.796875 C 25.347656 -26.109375 23.695312 -26.765625 21.625 -26.765625 C 19.539062 -26.765625 17.882812 -26.109375 16.65625 -24.796875 C 15.425781 -23.484375 14.8125 -21.640625 14.8125 -19.265625 L 14.8125 0 L 3.9375 0 L 3.9375 -35.484375 L 14.8125 -35.484375 L 14.8125 -30.78125 C 15.914062 -32.34375 17.398438 -33.578125 19.265625 -34.484375 C 21.128906 -35.398438 23.226562 -35.859375 25.5625 -35.859375 Z M 25.5625 -35.859375 "/></g></g></g><g fill="#000000" fill-opacity="1"><g transform="translate(151.837721, 65.906751)"><g><path d="M 18.375 0.515625 C 15.28125 0.515625 12.523438 -0.015625 10.109375 -1.078125 C 7.691406 -2.140625 5.785156 -3.59375 4.390625 -5.4375 C 2.992188 -7.28125 2.207031 -9.347656 2.03125 -11.640625 L 12.78125 -11.640625 C 12.90625 -10.410156 13.476562 -9.410156 14.5 -8.640625 C 15.519531 -7.878906 16.769531 -7.5 18.25 -7.5 C 19.601562 -7.5 20.648438 -7.765625 21.390625 -8.296875 C 22.140625 -8.828125 22.515625 -9.515625 22.515625 -10.359375 C 22.515625 -11.378906 21.984375 -12.132812 20.921875 -12.625 C 19.859375 -13.113281 18.140625 -13.65625 15.765625 -14.25 C 13.222656 -14.84375 11.101562 -15.46875 9.40625 -16.125 C 7.71875 -16.78125 6.257812 -17.816406 5.03125 -19.234375 C 3.800781 -20.660156 3.1875 -22.582031 3.1875 -25 C 3.1875 -27.03125 3.742188 -28.878906 4.859375 -30.546875 C 5.984375 -32.222656 7.632812 -33.550781 9.8125 -34.53125 C 12 -35.507812 14.597656 -36 17.609375 -36 C 22.066406 -36 25.578125 -34.894531 28.140625 -32.6875 C 30.703125 -30.476562 32.175781 -27.550781 32.5625 -23.90625 L 22.515625 -23.90625 C 22.347656 -25.132812 21.804688 -26.109375 20.890625 -26.828125 C 19.972656 -27.554688 18.773438 -27.921875 17.296875 -27.921875 C 16.023438 -27.921875 15.050781 -27.675781 14.375 -27.1875 C 13.695312 -26.695312 13.359375 -26.03125 13.359375 -25.1875 C 13.359375 -24.164062 13.894531 -23.398438 14.96875 -22.890625 C 16.050781 -22.378906 17.738281 -21.875 20.03125 -21.375 C 22.65625 -20.6875 24.796875 -20.015625 26.453125 -19.359375 C 28.109375 -18.703125 29.5625 -17.640625 30.8125 -16.171875 C 32.0625 -14.710938 32.707031 -12.753906 32.75 -10.296875 C 32.75 -8.222656 32.164062 -6.367188 31 -4.734375 C 29.832031 -3.109375 28.15625 -1.828125 25.96875 -0.890625 C 23.789062 0.0429688 21.257812 0.515625 18.375 0.515625 Z M 18.375 0.515625 "/></g></g></g><g fill="#000000" fill-opacity="1"><g transform="translate(187.324143, 65.906751)"><g><path d="M 21.75 -26.453125 L 15.90625 -26.453125 L 15.90625 0 L 5.03125 0 L 5.03125 -26.453125 L 1.078125 -26.453125 L 1.078125 -35.484375 L 5.03125 -35.484375 L 5.03125 -36.5 C 5.03125 -40.863281 6.28125 -44.179688 8.78125 -46.453125 C 11.28125 -48.722656 14.945312 -49.859375 19.78125 -49.859375 C 20.582031 -49.859375 21.175781 -49.835938 21.5625 -49.796875 L 21.5625 -40.578125 C 19.476562 -40.703125 18.015625 -40.398438 17.171875 -39.671875 C 16.328125 -38.953125 15.90625 -37.660156 15.90625 -35.796875 L 15.90625 -35.484375 L 21.75 -35.484375 Z M 21.75 -26.453125 "/></g></g></g><g fill="#000000" fill-opacity="1"><g transform="translate(210.218606, 65.906751)"><g><path d="M 20.09375 0.515625 C 16.613281 0.515625 13.484375 -0.222656 10.703125 -1.703125 C 7.929688 -3.191406 5.75 -5.3125 4.15625 -8.0625 C 2.570312 -10.820312 1.78125 -14.050781 1.78125 -17.75 C 1.78125 -21.394531 2.582031 -24.601562 4.1875 -27.375 C 5.800781 -30.15625 8.007812 -32.285156 10.8125 -33.765625 C 13.613281 -35.253906 16.75 -36 20.21875 -36 C 23.695312 -36 26.832031 -35.253906 29.625 -33.765625 C 32.425781 -32.285156 34.632812 -30.15625 36.25 -27.375 C 37.863281 -24.601562 38.671875 -21.394531 38.671875 -17.75 C 38.671875 -14.101562 37.851562 -10.890625 36.21875 -8.109375 C 34.582031 -5.328125 32.351562 -3.191406 29.53125 -1.703125 C 26.71875 -0.222656 23.570312 0.515625 20.09375 0.515625 Z M 20.09375 -8.90625 C 22.175781 -8.90625 23.945312 -9.664062 25.40625 -11.1875 C 26.863281 -12.71875 27.59375 -14.90625 27.59375 -17.75 C 27.59375 -20.582031 26.882812 -22.757812 25.46875 -24.28125 C 24.050781 -25.8125 22.300781 -26.578125 20.21875 -26.578125 C 18.101562 -26.578125 16.34375 -25.820312 14.9375 -24.3125 C 13.539062 -22.8125 12.84375 -20.625 12.84375 -17.75 C 12.84375 -14.90625 13.53125 -12.71875 14.90625 -11.1875 C 16.289062 -9.664062 18.019531 -8.90625 20.09375 -8.90625 Z M 20.09375 -8.90625 "/></g></g></g><g fill="#000000" fill-opacity="1"><g transform="translate(250.729094, 65.906751)"><g><path d="M 14.8125 -29.578125 C 16.082031 -31.523438 17.671875 -33.054688 19.578125 -34.171875 C 21.492188 -35.296875 23.617188 -35.859375 25.953125 -35.859375 L 25.953125 -24.359375 L 22.953125 -24.359375 C 20.242188 -24.359375 18.207031 -23.773438 16.84375 -22.609375 C 15.488281 -21.441406 14.8125 -19.394531 14.8125 -16.46875 L 14.8125 0 L 3.9375 0 L 3.9375 -35.484375 L 14.8125 -35.484375 Z M 14.8125 -29.578125 "/></g></g></g><g fill="#000000" fill-opacity="1"><g transform="translate(277.948075, 65.906751)"><g><path d="M 49.21875 -35.859375 C 53.625 -35.859375 57.128906 -34.523438 59.734375 -31.859375 C 62.347656 -29.191406 63.65625 -25.484375 63.65625 -20.734375 L 63.65625 0 L 52.84375 0 L 52.84375 -19.265625 C 52.84375 -21.554688 52.238281 -23.328125 51.03125 -24.578125 C 49.820312 -25.828125 48.160156 -26.453125 46.046875 -26.453125 C 43.921875 -26.453125 42.253906 -25.828125 41.046875 -24.578125 C 39.835938 -23.328125 39.234375 -21.554688 39.234375 -19.265625 L 39.234375 0 L 28.421875 0 L 28.421875 -19.265625 C 28.421875 -21.554688 27.816406 -23.328125 26.609375 -24.578125 C 25.398438 -25.828125 23.738281 -26.453125 21.625 -26.453125 C 19.5 -26.453125 17.832031 -25.828125 16.625 -24.578125 C 15.414062 -23.328125 14.8125 -21.554688 14.8125 -19.265625 L 14.8125 0 L 3.9375 0 L 3.9375 -35.484375 L 14.8125 -35.484375 L 14.8125 -31.03125 C 15.914062 -32.519531 17.359375 -33.695312 19.140625 -34.5625 C 20.921875 -35.425781 22.9375 -35.859375 25.1875 -35.859375 C 27.851562 -35.859375 30.234375 -35.285156 32.328125 -34.140625 C 34.429688 -33.003906 36.078125 -31.375 37.265625 -29.25 C 38.492188 -31.195312 40.164062 -32.785156 42.28125 -34.015625 C 44.40625 -35.242188 46.71875 -35.859375 49.21875 -35.859375 Z M 49.21875 -35.859375 "/></g></g></g><g fill="#000000" fill-opacity="1"><g transform="translate(345.295969, 65.906751)"><g><path d="M 9.40625 -39.171875 C 7.5 -39.171875 5.941406 -39.734375 4.734375 -40.859375 C 3.523438 -41.984375 2.921875 -43.375 2.921875 -45.03125 C 2.921875 -46.71875 3.523438 -48.125 4.734375 -49.25 C 5.941406 -50.375 7.5 -50.9375 9.40625 -50.9375 C 11.269531 -50.9375 12.804688 -50.375 14.015625 -49.25 C 15.222656 -48.125 15.828125 -46.71875 15.828125 -45.03125 C 15.828125 -43.375 15.222656 -41.984375 14.015625 -40.859375 C 12.804688 -39.734375 11.269531 -39.171875 9.40625 -39.171875 Z M 14.8125 -35.484375 L 14.8125 0 L 3.9375 0 L 3.9375 -35.484375 Z M 14.8125 -35.484375 "/></g></g></g><g fill="#000000" fill-opacity="1"><g transform="translate(364.056722, 65.906751)"><g><path d="M 25.5625 -35.859375 C 29.71875 -35.859375 33.035156 -34.515625 35.515625 -31.828125 C 37.992188 -29.140625 39.234375 -25.441406 39.234375 -20.734375 L 39.234375 0 L 28.421875 0 L 28.421875 -19.265625 C 28.421875 -21.640625 27.804688 -23.484375 26.578125 -24.796875 C 25.347656 -26.109375 23.695312 -26.765625 21.625 -26.765625 C 19.539062 -26.765625 17.882812 -26.109375 16.65625 -24.796875 C 15.425781 -23.484375 14.8125 -21.640625 14.8125 -19.265625 L 14.8125 0 L 3.9375 0 L 3.9375 -35.484375 L 14.8125 -35.484375 L 14.8125 -30.78125 C 15.914062 -32.34375 17.398438 -33.578125 19.265625 -34.484375 C 21.128906 -35.398438 23.226562 -35.859375 25.5625 -35.859375 Z M 25.5625 -35.859375 "/></g></g></g><g fill="#000000" fill-opacity="1"><g transform="translate(406.920247, 65.906751)"><g><path d="M 17.421875 -36 C 19.921875 -36 22.113281 -35.488281 24 -34.46875 C 25.894531 -33.445312 27.347656 -32.113281 28.359375 -30.46875 L 28.359375 -35.484375 L 39.234375 -35.484375 L 39.234375 -0.0625 C 39.234375 3.195312 38.585938 6.148438 37.296875 8.796875 C 36.003906 11.453125 34.03125 13.5625 31.375 15.125 C 28.726562 16.695312 25.4375 17.484375 21.5 17.484375 C 16.238281 17.484375 11.972656 16.242188 8.703125 13.765625 C 5.441406 11.285156 3.578125 7.925781 3.109375 3.6875 L 13.859375 3.6875 C 14.203125 5.039062 15.007812 6.109375 16.28125 6.890625 C 17.550781 7.679688 19.117188 8.078125 20.984375 8.078125 C 23.234375 8.078125 25.023438 7.429688 26.359375 6.140625 C 27.691406 4.847656 28.359375 2.78125 28.359375 -0.0625 L 28.359375 -5.09375 C 27.296875 -3.4375 25.832031 -2.085938 23.96875 -1.046875 C 22.101562 -0.00390625 19.921875 0.515625 17.421875 0.515625 C 14.492188 0.515625 11.84375 -0.234375 9.46875 -1.734375 C 7.101562 -3.242188 5.226562 -5.390625 3.84375 -8.171875 C 2.46875 -10.953125 1.78125 -14.164062 1.78125 -17.8125 C 1.78125 -21.457031 2.46875 -24.65625 3.84375 -27.40625 C 5.226562 -30.164062 7.101562 -32.285156 9.46875 -33.765625 C 11.84375 -35.253906 14.492188 -36 17.421875 -36 Z M 28.359375 -17.75 C 28.359375 -20.457031 27.601562 -22.59375 26.09375 -24.15625 C 24.59375 -25.726562 22.765625 -26.515625 20.609375 -26.515625 C 18.441406 -26.515625 16.601562 -25.738281 15.09375 -24.1875 C 13.59375 -22.644531 12.84375 -20.519531 12.84375 -17.8125 C 12.84375 -15.09375 13.59375 -12.9375 15.09375 -11.34375 C 16.601562 -9.757812 18.441406 -8.96875 20.609375 -8.96875 C 22.765625 -8.96875 24.59375 -9.75 26.09375 -11.3125 C 27.601562 -12.882812 28.359375 -15.03125 28.359375 -17.75 Z M 28.359375 -17.75 "/></g></g></g><g fill="#000000" fill-opacity="1"><g transform="translate(450.101745, 65.906751)"><g/></g></g><g fill="#000000" fill-opacity="1"><g transform="translate(463.584061, 65.906751)"><g><path d="M 20.671875 -44.640625 C 25.378906 -44.640625 29.488281 -43.707031 33 -41.84375 C 36.519531 -39.976562 39.242188 -37.359375 41.171875 -33.984375 C 43.109375 -30.617188 44.078125 -26.734375 44.078125 -22.328125 C 44.078125 -17.953125 43.109375 -14.066406 41.171875 -10.671875 C 39.242188 -7.285156 36.507812 -4.660156 32.96875 -2.796875 C 29.425781 -0.929688 25.328125 0 20.671875 0 L 3.9375 0 L 3.9375 -44.640625 Z M 19.96875 -9.40625 C 24.082031 -9.40625 27.28125 -10.53125 29.5625 -12.78125 C 31.851562 -15.03125 33 -18.210938 33 -22.328125 C 33 -26.429688 31.851562 -29.628906 29.5625 -31.921875 C 27.28125 -34.210938 24.082031 -35.359375 19.96875 -35.359375 L 14.8125 -35.359375 L 14.8125 -9.40625 Z M 19.96875 -9.40625 "/></g></g></g><g fill="#000000" fill-opacity="1"><g transform="translate(509.818165, 65.906751)"><g><path d="M 1.78125 -17.8125 C 1.78125 -21.457031 2.46875 -24.65625 3.84375 -27.40625 C 5.226562 -30.164062 7.101562 -32.285156 9.46875 -33.765625 C 11.84375 -35.253906 14.492188 -36 17.421875 -36 C 19.921875 -36 22.113281 -35.488281 24 -34.46875 C 25.894531 -33.445312 27.347656 -32.113281 28.359375 -30.46875 L 28.359375 -35.484375 L 39.234375 -35.484375 L 39.234375 0 L 28.359375 0 L 28.359375 -5.03125 C 27.296875 -3.375 25.820312 -2.035156 23.9375 -1.015625 C 22.050781 0.00390625 19.859375 0.515625 17.359375 0.515625 C 14.472656 0.515625 11.84375 -0.234375 9.46875 -1.734375 C 7.101562 -3.242188 5.226562 -5.390625 3.84375 -8.171875 C 2.46875 -10.953125 1.78125 -14.164062 1.78125 -17.8125 Z M 28.359375 -17.75 C 28.359375 -20.457031 27.601562 -22.59375 26.09375 -24.15625 C 24.59375 -25.726562 22.765625 -26.515625 20.609375 -26.515625 C 18.441406 -26.515625 16.601562 -25.738281 15.09375 -24.1875 C 13.59375 -22.644531 12.84375 -20.519531 12.84375 -17.8125 C 12.84375 -15.09375 13.59375 -12.9375 15.09375 -11.34375 C 16.601562 -9.757812 18.441406 -8.96875 20.609375 -8.96875 C 22.765625 -8.96875 24.59375 -9.75 26.09375 -11.3125 C 27.601562 -12.882812 28.359375 -15.03125 28.359375 -17.75 Z M 28.359375 -17.75 "/></g></g></g><g fill="#000000" fill-opacity="1"><g transform="translate(552.999662, 65.906751)"><g><path d="M 23.71875 -9.21875 L 23.71875 0 L 18.1875 0 C 14.25 0 11.175781 -0.960938 8.96875 -2.890625 C 6.757812 -4.816406 5.65625 -7.96875 5.65625 -12.34375 L 5.65625 -26.453125 L 1.328125 -26.453125 L 1.328125 -35.484375 L 5.65625 -35.484375 L 5.65625 -44.140625 L 16.53125 -44.140625 L 16.53125 -35.484375 L 23.65625 -35.484375 L 23.65625 -26.453125 L 16.53125 -26.453125 L 16.53125 -12.203125 C 16.53125 -11.148438 16.785156 -10.390625 17.296875 -9.921875 C 17.804688 -9.453125 18.65625 -9.21875 19.84375 -9.21875 Z M 23.71875 -9.21875 "/></g></g></g><g fill="#000000" fill-opacity="1"><g transform="translate(578.819526, 65.906751)"><g><path d="M 1.78125 -17.8125 C 1.78125 -21.457031 2.46875 -24.65625 3.84375 -27.40625 C 5.226562 -30.164062 7.101562 -32.285156 9.46875 -33.765625 C 11.84375 -35.253906 14.492188 -36 17.421875 -36 C 19.921875 -36 22.113281 -35.488281 24 -34.46875 C 25.894531 -33.445312 27.347656 -32.113281 28.359375 -30.46875 L 28.359375 -35.484375 L 39.234375 -35.484375 L 39.234375 0 L 28.359375 0 L 28.359375 -5.03125 C 27.296875 -3.375 25.820312 -2.035156 23.9375 -1.015625 C 22.050781 0.00390625 19.859375 0.515625 17.359375 0.515625 C 14.472656 0.515625 11.84375 -0.234375 9.46875 -1.734375 C 7.101562 -3.242188 5.226562 -5.390625 3.84375 -8.171875 C 2.46875 -10.953125 1.78125 -14.164062 1.78125 -17.8125 Z M 28.359375 -17.75 C 28.359375 -20.457031 27.601562 -22.59375 26.09375 -24.15625 C 24.59375 -25.726562 22.765625 -26.515625 20.609375 -26.515625 C 18.441406 -26.515625 16.601562 -25.738281 15.09375 -24.1875 C 13.59375 -22.644531 12.84375 -20.519531 12.84375 -17.8125 C 12.84375 -15.09375 13.59375 -12.9375 15.09375 -11.34375 C 16.601562 -9.757812 18.441406 -8.96875 20.609375 -8.96875 C 22.765625 -8.96875 24.59375 -9.75 26.09375 -11.3125 C 27.601562 -12.882812 28.359375 -15.03125 28.359375 -17.75 Z M 28.359375 -17.75 "/></g></g></g><g fill="#000000" fill-opacity="1"><g transform="translate(635.48334, 65.906751)"><g><path d="M 14.8125 -44.640625 L 14.8125 0 L 3.9375 0 L 3.9375 -44.640625 Z M 14.8125 -44.640625 "/></g></g></g><g fill="#000000" fill-opacity="1"><g transform="translate(654.244114, 65.906751)"><g><path d="M 25.5625 -35.859375 C 29.71875 -35.859375 33.035156 -34.515625 35.515625 -31.828125 C 37.992188 -29.140625 39.234375 -25.441406 39.234375 -20.734375 L 39.234375 0 L 28.421875 0 L 28.421875 -19.265625 C 28.421875 -21.640625 27.804688 -23.484375 26.578125 -24.796875 C 25.347656 -26.109375 23.695312 -26.765625 21.625 -26.765625 C 19.539062 -26.765625 17.882812 -26.109375 16.65625 -24.796875 C 15.425781 -23.484375 14.8125 -21.640625 14.8125 -19.265625 L 14.8125 0 L 3.9375 0 L 3.9375 -35.484375 L 14.8125 -35.484375 L 14.8125 -30.78125 C 15.914062 -32.34375 17.398438 -33.578125 19.265625 -34.484375 C 21.128906 -35.398438 23.226562 -35.859375 25.5625 -35.859375 Z M 25.5625 -35.859375 "/></g></g></g><g fill="#000000" fill-opacity="1"><g transform="translate(697.107639, 65.906751)"><g><path d="M 23.71875 -9.21875 L 23.71875 0 L 18.1875 0 C 14.25 0 11.175781 -0.960938 8.96875 -2.890625 C 6.757812 -4.816406 5.65625 -7.96875 5.65625 -12.34375 L 5.65625 -26.453125 L 1.328125 -26.453125 L 1.328125 -35.484375 L 5.65625 -35.484375 L 5.65625 -44.140625 L 16.53125 -44.140625 L 16.53125 -35.484375 L 23.65625 -35.484375 L 23.65625 -26.453125 L 16.53125 -26.453125 L 16.53125 -12.203125 C 16.53125 -11.148438 16.785156 -10.390625 17.296875 -9.921875 C 17.804688 -9.453125 18.65625 -9.21875 19.84375 -9.21875 Z M 23.71875 -9.21875 "/></g></g></g><g fill="#000000" fill-opacity="1"><g transform="translate(722.92746, 65.906751)"><g><path d="M 20.09375 0.515625 C 16.613281 0.515625 13.484375 -0.222656 10.703125 -1.703125 C 7.929688 -3.191406 5.75 -5.3125 4.15625 -8.0625 C 2.570312 -10.820312 1.78125 -14.050781 1.78125 -17.75 C 1.78125 -21.394531 2.582031 -24.601562 4.1875 -27.375 C 5.800781 -30.15625 8.007812 -32.285156 10.8125 -33.765625 C 13.613281 -35.253906 16.75 -36 20.21875 -36 C 23.695312 -36 26.832031 -35.253906 29.625 -33.765625 C 32.425781 -32.285156 34.632812 -30.15625 36.25 -27.375 C 37.863281 -24.601562 38.671875 -21.394531 38.671875 -17.75 C 38.671875 -14.101562 37.851562 -10.890625 36.21875 -8.109375 C 34.582031 -5.328125 32.351562 -3.191406 29.53125 -1.703125 C 26.71875 -0.222656 23.570312 0.515625 20.09375 0.515625 Z M 20.09375 -8.90625 C 22.175781 -8.90625 23.945312 -9.664062 25.40625 -11.1875 C 26.863281 -12.71875 27.59375 -14.90625 27.59375 -17.75 C 27.59375 -20.582031 26.882812 -22.757812 25.46875 -24.28125 C 24.050781 -25.8125 22.300781 -26.578125 20.21875 -26.578125 C 18.101562 -26.578125 16.34375 -25.820312 14.9375 -24.3125 C 13.539062 -22.8125 12.84375 -20.625 12.84375 -17.75 C 12.84375 -14.90625 13.53125 -12.71875 14.90625 -11.1875 C 16.289062 -9.664062 18.019531 -8.90625 20.09375 -8.90625 Z M 20.09375 -8.90625 "/></g></g></g><g fill="#000000" fill-opacity="1"><g transform="translate(763.43797, 65.906751)"><g/></g></g><g fill="#000000" fill-opacity="1"><g transform="translate(776.920286, 65.906751)"><g><path d="M 14.8125 -44.640625 L 14.8125 0 L 3.9375 0 L 3.9375 -44.640625 Z M 14.8125 -44.640625 "/></g></g></g><g fill="#000000" fill-opacity="1"><g transform="translate(795.681018, 65.906751)"><g><path d="M 25.5625 -35.859375 C 29.71875 -35.859375 33.035156 -34.515625 35.515625 -31.828125 C 37.992188 -29.140625 39.234375 -25.441406 39.234375 -20.734375 L 39.234375 0 L 28.421875 0 L 28.421875 -19.265625 C 28.421875 -21.640625 27.804688 -23.484375 26.578125 -24.796875 C 25.347656 -26.109375 23.695312 -26.765625 21.625 -26.765625 C 19.539062 -26.765625 17.882812 -26.109375 16.65625 -24.796875 C 15.425781 -23.484375 14.8125 -21.640625 14.8125 -19.265625 L 14.8125 0 L 3.9375 0 L 3.9375 -35.484375 L 14.8125 -35.484375 L 14.8125 -30.78125 C 15.914062 -32.34375 17.398438 -33.578125 19.265625 -34.484375 C 21.128906 -35.398438 23.226562 -35.859375 25.5625 -35.859375 Z M 25.5625 -35.859375 "/></g></g></g><g fill="#000000" fill-opacity="1"><g transform="translate(838.544543, 65.906751)"><g><path d="M 21.75 -26.453125 L 15.90625 -26.453125 L 15.90625 0 L 5.03125 0 L 5.03125 -26.453125 L 1.078125 -26.453125 L 1.078125 -35.484375 L 5.03125 -35.484375 L 5.03125 -36.5 C 5.03125 -40.863281 6.28125 -44.179688 8.78125 -46.453125 C 11.28125 -48.722656 14.945312 -49.859375 19.78125 -49.859375 C 20.582031 -49.859375 21.175781 -49.835938 21.5625 -49.796875 L 21.5625 -40.578125 C 19.476562 -40.703125 18.015625 -40.398438 17.171875 -39.671875 C 16.328125 -38.953125 15.90625 -37.660156 15.90625 -35.796875 L 15.90625 -35.484375 L 21.75 -35.484375 Z M 21.75 -26.453125 "/></g></g></g><g fill="#000000" fill-opacity="1"><g transform="translate(861.439007, 65.906751)"><g><path d="M 20.09375 0.515625 C 16.613281 0.515625 13.484375 -0.222656 10.703125 -1.703125 C 7.929688 -3.191406 5.75 -5.3125 4.15625 -8.0625 C 2.570312 -10.820312 1.78125 -14.050781 1.78125 -17.75 C 1.78125 -21.394531 2.582031 -24.601562 4.1875 -27.375 C 5.800781 -30.15625 8.007812 -32.285156 10.8125 -33.765625 C 13.613281 -35.253906 16.75 -36 20.21875 -36 C 23.695312 -36 26.832031 -35.253906 29.625 -33.765625 C 32.425781 -32.285156 34.632812 -30.15625 36.25 -27.375 C 37.863281 -24.601562 38.671875 -21.394531 38.671875 -17.75 C 38.671875 -14.101562 37.851562 -10.890625 36.21875 -8.109375 C 34.582031 -5.328125 32.351562 -3.191406 29.53125 -1.703125 C 26.71875 -0.222656 23.570312 0.515625 20.09375 0.515625 Z M 20.09375 -8.90625 C 22.175781 -8.90625 23.945312 -9.664062 25.40625 -11.1875 C 26.863281 -12.71875 27.59375 -14.90625 27.59375 -17.75 C 27.59375 -20.582031 26.882812 -22.757812 25.46875 -24.28125 C 24.050781 -25.8125 22.300781 -26.578125 20.21875 -26.578125 C 18.101562 -26.578125 16.34375 -25.820312 14.9375 -24.3125 C 13.539062 -22.8125 12.84375 -20.625 12.84375 -17.75 C 12.84375 -14.90625 13.53125 -12.71875 14.90625 -11.1875 C 16.289062 -9.664062 18.019531 -8.90625 20.09375 -8.90625 Z M 20.09375 -8.90625 "/></g></g></g><g fill="#000000" fill-opacity="1"><g transform="translate(901.949516, 65.906751)"><g><path d="M 14.8125 -29.578125 C 16.082031 -31.523438 17.671875 -33.054688 19.578125 -34.171875 C 21.492188 -35.296875 23.617188 -35.859375 25.953125 -35.859375 L 25.953125 -24.359375 L 22.953125 -24.359375 C 20.242188 -24.359375 18.207031 -23.773438 16.84375 -22.609375 C 15.488281 -21.441406 14.8125 -19.394531 14.8125 -16.46875 L 14.8125 0 L 3.9375 0 L 3.9375 -35.484375 L 14.8125 -35.484375 Z M 14.8125 -29.578125 "/></g></g></g><g fill="#000000" fill-opacity="1"><g transform="translate(929.168477, 65.906751)"><g><path d="M 49.21875 -35.859375 C 53.625 -35.859375 57.128906 -34.523438 59.734375 -31.859375 C 62.347656 -29.191406 63.65625 -25.484375 63.65625 -20.734375 L 63.65625 0 L 52.84375 0 L 52.84375 -19.265625 C 52.84375 -21.554688 52.238281 -23.328125 51.03125 -24.578125 C 49.820312 -25.828125 48.160156 -26.453125 46.046875 -26.453125 C 43.921875 -26.453125 42.253906 -25.828125 41.046875 -24.578125 C 39.835938 -23.328125 39.234375 -21.554688 39.234375 -19.265625 L 39.234375 0 L 28.421875 0 L 28.421875 -19.265625 C 28.421875 -21.554688 27.816406 -23.328125 26.609375 -24.578125 C 25.398438 -25.828125 23.738281 -26.453125 21.625 -26.453125 C 19.5 -26.453125 17.832031 -25.828125 16.625 -24.578125 C 15.414062 -23.328125 14.8125 -21.554688 14.8125 -19.265625 L 14.8125 0 L 3.9375 0 L 3.9375 -35.484375 L 14.8125 -35.484375 L 14.8125 -31.03125 C 15.914062 -32.519531 17.359375 -33.695312 19.140625 -34.5625 C 20.921875 -35.425781 22.9375 -35.859375 25.1875 -35.859375 C 27.851562 -35.859375 30.234375 -35.285156 32.328125 -34.140625 C 34.429688 -33.003906 36.078125 -31.375 37.265625 -29.25 C 38.492188 -31.195312 40.164062 -32.785156 42.28125 -34.015625 C 44.40625 -35.242188 46.71875 -35.859375 49.21875 -35.859375 Z M 49.21875 -35.859375 "/></g></g></g><g fill="#000000" fill-opacity="1"><g transform="translate(996.516413, 65.906751)"><g><path d="M 1.78125 -17.8125 C 1.78125 -21.457031 2.46875 -24.65625 3.84375 -27.40625 C 5.226562 -30.164062 7.101562 -32.285156 9.46875 -33.765625 C 11.84375 -35.253906 14.492188 -36 17.421875 -36 C 19.921875 -36 22.113281 -35.488281 24 -34.46875 C 25.894531 -33.445312 27.347656 -32.113281 28.359375 -30.46875 L 28.359375 -35.484375 L 39.234375 -35.484375 L 39.234375 0 L 28.359375 0 L 28.359375 -5.03125 C 27.296875 -3.375 25.820312 -2.035156 23.9375 -1.015625 C 22.050781 0.00390625 19.859375 0.515625 17.359375 0.515625 C 14.472656 0.515625 11.84375 -0.234375 9.46875 -1.734375 C 7.101562 -3.242188 5.226562 -5.390625 3.84375 -8.171875 C 2.46875 -10.953125 1.78125 -14.164062 1.78125 -17.8125 Z M 28.359375 -17.75 C 28.359375 -20.457031 27.601562 -22.59375 26.09375 -24.15625 C 24.59375 -25.726562 22.765625 -26.515625 20.609375 -26.515625 C 18.441406 -26.515625 16.601562 -25.738281 15.09375 -24.1875 C 13.59375 -22.644531 12.84375 -20.519531 12.84375 -17.8125 C 12.84375 -15.09375 13.59375 -12.9375 15.09375 -11.34375 C 16.601562 -9.757812 18.441406 -8.96875 20.609375 -8.96875 C 22.765625 -8.96875 24.59375 -9.75 26.09375 -11.3125 C 27.601562 -12.882812 28.359375 -15.03125 28.359375 -17.75 Z M 28.359375 -17.75 "/></g></g></g><g fill="#000000" fill-opacity="1"><g transform="translate(1039.69791, 65.906751)"><g><path d="M 23.71875 -9.21875 L 23.71875 0 L 18.1875 0 C 14.25 0 11.175781 -0.960938 8.96875 -2.890625 C 6.757812 -4.816406 5.65625 -7.96875 5.65625 -12.34375 L 5.65625 -26.453125 L 1.328125 -26.453125 L 1.328125 -35.484375 L 5.65625 -35.484375 L 5.65625 -44.140625 L 16.53125 -44.140625 L 16.53125 -35.484375 L 23.65625 -35.484375 L 23.65625 -26.453125 L 16.53125 -26.453125 L 16.53125 -12.203125 C 16.53125 -11.148438 16.785156 -10.390625 17.296875 -9.921875 C 17.804688 -9.453125 18.65625 -9.21875 19.84375 -9.21875 Z M 23.71875 -9.21875 "/></g></g></g><g fill="#000000" fill-opacity="1"><g transform="translate(1065.517774, 65.906751)"><g><path d="M 9.40625 -39.171875 C 7.5 -39.171875 5.941406 -39.734375 4.734375 -40.859375 C 3.523438 -41.984375 2.921875 -43.375 2.921875 -45.03125 C 2.921875 -46.71875 3.523438 -48.125 4.734375 -49.25 C 5.941406 -50.375 7.5 -50.9375 9.40625 -50.9375 C 11.269531 -50.9375 12.804688 -50.375 14.015625 -49.25 C 15.222656 -48.125 15.828125 -46.71875 15.828125 -45.03125 C 15.828125 -43.375 15.222656 -41.984375 14.015625 -40.859375 C 12.804688 -39.734375 11.269531 -39.171875 9.40625 -39.171875 Z M 14.8125 -35.484375 L 14.8125 0 L 3.9375 0 L 3.9375 -35.484375 Z M 14.8125 -35.484375 "/></g></g></g><g fill="#000000" fill-opacity="1"><g transform="translate(1084.278506, 65.906751)"><g><path d="M 20.09375 0.515625 C 16.613281 0.515625 13.484375 -0.222656 10.703125 -1.703125 C 7.929688 -3.191406 5.75 -5.3125 4.15625 -8.0625 C 2.570312 -10.820312 1.78125 -14.050781 1.78125 -17.75 C 1.78125 -21.394531 2.582031 -24.601562 4.1875 -27.375 C 5.800781 -30.15625 8.007812 -32.285156 10.8125 -33.765625 C 13.613281 -35.253906 16.75 -36 20.21875 -36 C 23.695312 -36 26.832031 -35.253906 29.625 -33.765625 C 32.425781 -32.285156 34.632812 -30.15625 36.25 -27.375 C 37.863281 -24.601562 38.671875 -21.394531 38.671875 -17.75 C 38.671875 -14.101562 37.851562 -10.890625 36.21875 -8.109375 C 34.582031 -5.328125 32.351562 -3.191406 29.53125 -1.703125 C 26.71875 -0.222656 23.570312 0.515625 20.09375 0.515625 Z M 20.09375 -8.90625 C 22.175781 -8.90625 23.945312 -9.664062 25.40625 -11.1875 C 26.863281 -12.71875 27.59375 -14.90625 27.59375 -17.75 C 27.59375 -20.582031 26.882812 -22.757812 25.46875 -24.28125 C 24.050781 -25.8125 22.300781 -26.578125 20.21875 -26.578125 C 18.101562 -26.578125 16.34375 -25.820312 14.9375 -24.3125 C 13.539062 -22.8125 12.84375 -20.625 12.84375 -17.75 C 12.84375 -14.90625 13.53125 -12.71875 14.90625 -11.1875 C 16.289062 -9.664062 18.019531 -8.90625 20.09375 -8.90625 Z M 20.09375 -8.90625 "/></g></g></g><g fill="#000000" fill-opacity="1"><g transform="translate(1124.789016, 65.906751)"><g><path d="M 25.5625 -35.859375 C 29.71875 -35.859375 33.035156 -34.515625 35.515625 -31.828125 C 37.992188 -29.140625 39.234375 -25.441406 39.234375 -20.734375 L 39.234375 0 L 28.421875 0 L 28.421875 -19.265625 C 28.421875 -21.640625 27.804688 -23.484375 26.578125 -24.796875 C 25.347656 -26.109375 23.695312 -26.765625 21.625 -26.765625 C 19.539062 -26.765625 17.882812 -26.109375 16.65625 -24.796875 C 15.425781 -23.484375 14.8125 -21.640625 14.8125 -19.265625 L 14.8125 0 L 3.9375 0 L 3.9375 -35.484375 L 14.8125 -35.484375 L 14.8125 -30.78125 C 15.914062 -32.34375 17.398438 -33.578125 19.265625 -34.484375 C 21.128906 -35.398438 23.226562 -35.859375 25.5625 -35.859375 Z M 25.5625 -35.859375 "/></g></g></g></g></g></svg>